<svg xmlns="http://www.w3.org/2000/svg" viewBox="0 0 800 600" width="800" height="600"><defs><linearGradient id="g" x1="0" y1="0" x2="1" y2="1"><stop offset="0" stop-color="#f4efe9"/><stop offset="1" stop-color="#e9e3dd"/></linearGradient></defs><rect width="800" height="600" fill="url(#g)"/><circle cx="400" cy="300" r="215" fill="#fff" opacity=".85"/><circle cx="400" cy="300" r="215" fill="none" stroke="#ddd5ce" stroke-width="2"/><path d="M230 290c0-80 80-120 170-120s170 40 170 120z" fill="#e1201a" stroke="#1a1414" stroke-width="7" stroke-linecap="round" stroke-linejoin="round"/><circle cx="330" cy="235" r="6" fill="#fff"/><circle cx="400" cy="215" r="6" fill="#fff"/><circle cx="465" cy="238" r="6" fill="#fff"/><path d="M215 320c30 20 40-20 70 0s40-20 70 0 40-20 70 0 40-20 70 0 40-20 60 0" fill="none" stroke="#1a1414" stroke-width="9" stroke-linecap="round"/><rect x="225" y="345" width="350" height="44" rx="22" fill="#1a1010" stroke="#1a1414" stroke-width="7" stroke-linecap="round" stroke-linejoin="round"/><path d="M230 410h340c0 40-30 56-70 56H300c-40 0-70-16-70-56z" fill="#e1201a" stroke="#1a1414" stroke-width="7" stroke-linecap="round" stroke-linejoin="round"/><text x="400" y="565" text-anchor="middle" font-family="Arial,sans-serif" font-size="13" letter-spacing="3" fill="#1a1414" opacity=".4">SAMPLE IMAGE</text></svg>