<svg xmlns="http://www.w3.org/2000/svg" viewBox="0 0 800 600" width="800" height="600"><defs><linearGradient id="g" x1="0" y1="0" x2="1" y2="1"><stop offset="0" stop-color="#f6f1ed"/><stop offset="1" stop-color="#e9e3dd"/></linearGradient></defs><rect width="800" height="600" fill="url(#g)"/><circle cx="400" cy="300" r="215" fill="#fff" opacity=".85"/><circle cx="400" cy="300" r="215" fill="none" stroke="#ddd5ce" stroke-width="2"/><path d="M330 190c60-40 150 10 130 100-14 60-70 90-120 70-44-18-60-80-10-170z" fill="#e1201a" stroke="#1a1414" stroke-width="7" stroke-linecap="round" stroke-linejoin="round"/><path d="M350 360l-60 70M320 350l-70 50" stroke="#1a1414" stroke-width="7" stroke-linecap="round" stroke-linejoin="round" fill="none"/><circle cx="262" cy="440" r="16" fill="#fff"/><circle cx="238" cy="410" r="14" fill="#fff"/><path d="M380 240c20-10 40 0 44 24M366 290c18 4 30 16 30 34" fill="none" stroke="#1a1414" stroke-width="5" opacity=".7"/><text x="400" y="565" text-anchor="middle" font-family="Arial,sans-serif" font-size="13" letter-spacing="3" fill="#1a1414" opacity=".4">SAMPLE IMAGE</text></svg>